<svg width="25" height="15" viewBox="0 0 25 15" fill="none" xmlns="http://www.w3.org/2000/svg">
<path d="M7.57547 5.87462L6.93528 6.64284L7.21342 6.87462L7.57548 6.87462L7.57547 5.87462ZM16.0754 5.87457L16.8515 5.24398L16.5514 4.87457L16.0754 4.87457L16.0754 5.87457ZM22.4726 14.8692C23.022 14.9261 23.5134 14.5268 23.5702 13.9774L24.4962 5.0252C24.5531 4.47585 24.1538 3.98445 23.6044 3.92762C23.0551 3.87079 22.5637 4.27007 22.5068 4.81942L21.6837 12.777L13.7262 11.9538C13.1768 11.897 12.6854 12.2963 12.6286 12.8456C12.5717 13.395 12.971 13.8864 13.5204 13.9432L22.4726 14.8692ZM0.935309 1.64276L6.93528 6.64284L8.21566 5.10641L2.21569 0.106329L0.935309 1.64276ZM7.57548 6.87462L16.0754 6.87457L16.0754 4.87457L7.57547 4.87462L7.57548 6.87462ZM15.2993 6.50517L21.7994 14.5051L23.3516 13.2439L16.8515 5.24398L15.2993 6.50517Z" fill="#FC0C18"/>
</svg>
